<svg version="1" xmlns="http://www.w3.org/2000/svg" width="800" height="800" viewBox="0 0 600.000000 600.000000"><path d="M272.5 1c-19.4 2.1-33.7 4.7-51.5 9.5-11.8 3.2-28.9 8.9-35.5 11.9-1.6.8-5.2 2.4-8 3.6-52.1 22.9-100 64.3-131.2 113.5-6.2 9.8-12.5 21.2-15.9 28.5-1.4 3-3.6 7.7-4.9 10.5-7.5 15.8-17.1 46.2-20 63.7-.3 1.8-.8 4-1 4.8-.2.8-.7 3.5-1 6-.3 2.5-.8 6.1-1.1 8-2 14.1-2.7 52.5-1.2 68C7.9 397.5 38 461.6 86.5 510.6c42.8 43.2 92.8 70.5 152.5 83.2 5.2 1.2 11.5 2.3 14 2.6 2.5.3 5.6.8 7 1.1 13 2.7 64.5 2.7 80 .1 1.4-.3 4.2-.7 6.3-1 2-.3 5.4-.9 7.5-1.2 2-.3 10-2.1 17.7-4 24.8-6.1 46.2-14.3 69.4-26.5l11.4-5.9 9.3 9.4c16 16.1 23.4 21.5 36.2 26.5 5.1 2 7 2.5 16.3 4 5 .8 16.9.7 23.4-.3 6-.8 17.9-5.1 24.1-8.6 38.9-22.3 50-74 23.6-110-1.8-2.5-8.4-9.7-14.7-16.1l-11.4-11.7 2.6-4.8c11.7-21.9 22-46.2 26.3-62.4.7-2.5 1.4-5.2 1.6-6 .2-.8 1.7-7.3 3.3-14.3 2.9-12.7 3.6-16.6 4.7-26.2.3-2.8.8-6.1 1.1-7.5.9-4.4 1.1-50.2.2-58-1.4-13-2.6-21.9-3.4-26-8.7-45.8-25.7-85.8-52-122.5-2.7-3.9-5.2-7.2-5.5-7.5-.3-.3-3.2-3.9-6.5-8-10.4-13.1-35.6-37.4-49-47.2-.5-.4-2.3-1.8-4-3.2-4.5-3.5-20.1-13.8-28-18.3-28.7-16.5-57-27.3-89.5-34.2-5.2-1.1-11.3-2.2-13.5-2.5-7.3-.9-13-1.7-15.5-2.3-4.1-.8-52-1-59.5-.3zm51 128.9c3.3.6 7.6 1.3 9.5 1.6 1.9.3 6.8 1.5 11 2.6 58.7 15.6 105.7 62.1 121.5 120.3 1.3 5 2.7 10.9 3 13.1.3 2.2.8 4.6 1 5.3 1.7 4.9 2.5 33.3 1.3 45.2-1.3 11.9-6.8 36-8.8 38.3-.5.5-2.7-.2-5.1-1.5-18.8-10.3-43.3-11.6-63.5-3.4-29.1 11.9-47.4 39-47.2 70.1 0 4.9.7 11.9 1.4 15.5 1.5 6.9 5.6 18 8 21.4.8 1.1 1.4 2.4 1.4 2.8 0 1-14.4 5.4-23.7 7.2-13.3 2.5-20 3.1-35.8 2.9-23.2-.2-40.9-3.8-62.4-12.5-39.7-16-73-47.9-91.3-87.7-2.2-4.7-4.2-9.3-4.4-10.1-.2-.8-1.5-4.7-2.8-8.6-5.2-15-7.9-32.5-8-51.9 0-20 2.7-37.7 8.6-54.5 1.6-4.7 3.2-9.4 3.5-10.5 1.1-3.8 12-24.1 16.3-30.6 29-42.9 75.4-70.8 126.1-75.7 10.8-1 32.7-.7 40.4.7z"/></svg>